<svg width="240" height="56" viewBox="0 0 240 56" fill="none" xmlns="http://www.w3.org/2000/svg">
<path d="M13.8 44V18.8H23.232C25.272 18.8 26.952 19.148 28.272 19.844C29.592 20.54 30.576 21.476 31.224 22.652C31.872 23.804 32.196 25.088 32.196 26.504C32.196 27.848 31.872 29.108 31.224 30.284C30.6 31.436 29.628 32.372 28.308 33.092C26.988 33.788 25.284 34.136 23.196 34.136H18.66V44H13.8ZM26.868 44L21.684 32.912H26.976L32.448 44H26.868ZM18.66 30.608H22.944C24.408 30.608 25.488 30.248 26.184 29.528C26.88 28.808 27.228 27.86 27.228 26.684C27.228 25.508 26.88 24.584 26.184 23.912C25.512 23.216 24.42 22.868 22.908 22.868H18.66V30.608Z" fill="#0C0A09"/>
<path d="M51.764 40V20.4H58.792C60.36 20.4 61.648 20.6707 62.656 21.212C63.664 21.7347 64.4107 22.444 64.896 23.34C65.4 24.2173 65.652 25.216 65.652 26.336C65.652 27.3813 65.4093 28.352 64.924 29.248C64.4387 30.144 63.6827 30.8627 62.656 31.404C61.648 31.9453 60.3413 32.216 58.736 32.216H55.124V40H51.764ZM61.984 40L57.868 31.348H61.536L65.848 40H61.984ZM55.124 29.724H58.596C59.828 29.724 60.7333 29.4253 61.312 28.828C61.9093 28.212 62.208 27.4093 62.208 26.42C62.208 25.4493 61.9187 24.6747 61.34 24.096C60.78 23.4987 59.856 23.2 58.568 23.2H55.124V29.724ZM73.6915 40.336C72.2915 40.336 71.0502 40.0373 69.9675 39.44C68.9035 38.824 68.0635 37.984 67.4475 36.92C66.8502 35.8373 66.5515 34.5773 66.5515 33.14C66.5515 31.684 66.8502 30.4053 67.4475 29.304C68.0448 28.2027 68.8755 27.344 69.9395 26.728C71.0222 26.0933 72.2728 25.776 73.6915 25.776C75.0728 25.776 76.2768 26.084 77.3035 26.7C78.3302 27.2973 79.1328 28.1 79.7115 29.108C80.2902 30.116 80.5795 31.2547 80.5795 32.524C80.5795 32.7107 80.5702 32.916 80.5515 33.14C80.5515 33.364 80.5422 33.6067 80.5235 33.868H68.9595V31.712H77.1915C77.1355 30.7227 76.7808 29.9387 76.1275 29.36C75.4742 28.7813 74.6622 28.492 73.6915 28.492C73.0008 28.492 72.3568 28.6507 71.7595 28.968C71.1808 29.2667 70.7142 29.724 70.3595 30.34C70.0235 30.956 69.8555 31.7307 69.8555 32.664V33.476C69.8555 34.3347 70.0235 35.072 70.3595 35.688C70.6955 36.304 71.1528 36.7707 71.7315 37.088C72.3102 37.4053 72.9542 37.564 73.6635 37.564C74.4288 37.564 75.0728 37.396 75.5955 37.06C76.1182 36.7053 76.5102 36.2387 76.7715 35.66H80.1595C79.9168 36.556 79.4875 37.3587 78.8715 38.068C78.2742 38.7587 77.5368 39.3093 76.6595 39.72C75.7822 40.1307 74.7928 40.336 73.6915 40.336ZM85.7442 40L80.7322 26.112H84.2602L87.8722 37.032H87.9002L91.5122 26.112H95.0122L90.0002 40H85.7442ZM96.2459 40V26.112H99.2139L99.5219 28.856H99.5499C99.9046 28.1467 100.325 27.568 100.81 27.12C101.295 26.672 101.855 26.336 102.49 26.112C103.143 25.888 103.862 25.776 104.646 25.776V29.304H103.75C103.134 29.304 102.565 29.3787 102.042 29.528C101.538 29.6773 101.099 29.9107 100.726 30.228C100.371 30.5453 100.091 30.9747 99.8859 31.516C99.6993 32.0573 99.6059 32.72 99.6059 33.504V40H96.2459ZM112.295 40.336C110.969 40.336 109.775 40.028 108.711 39.412C107.647 38.796 106.797 37.9467 106.163 36.864C105.547 35.7627 105.239 34.4933 105.239 33.056C105.239 31.6187 105.547 30.3493 106.163 29.248C106.797 28.1467 107.647 27.2973 108.711 26.7C109.793 26.084 110.997 25.776 112.323 25.776C113.667 25.776 114.871 26.084 115.935 26.7C116.999 27.2973 117.839 28.1467 118.455 29.248C119.089 30.3307 119.407 31.6 119.407 33.056C119.407 34.4933 119.089 35.7627 118.455 36.864C117.839 37.9467 116.989 38.796 115.907 39.412C114.843 40.028 113.639 40.336 112.295 40.336ZM112.295 37.48C112.967 37.48 113.573 37.312 114.115 36.976C114.675 36.64 115.123 36.1453 115.459 35.492C115.795 34.8387 115.963 34.0267 115.963 33.056C115.963 32.0667 115.795 31.2453 115.459 30.592C115.123 29.9387 114.675 29.4533 114.115 29.136C113.573 28.8 112.976 28.632 112.323 28.632C111.688 28.632 111.091 28.8 110.531 29.136C109.971 29.4533 109.513 29.9387 109.159 30.592C108.823 31.2453 108.655 32.0667 108.655 33.056C108.655 34.0267 108.823 34.8387 109.159 35.492C109.513 36.1453 109.961 36.64 110.503 36.976C111.063 37.312 111.66 37.48 112.295 37.48ZM126.625 40.336C125.486 40.336 124.516 40.1027 123.713 39.636C122.91 39.1507 122.294 38.4413 121.865 37.508C121.436 36.556 121.221 35.3893 121.221 34.008V26.112H124.553V33.672C124.553 34.9227 124.805 35.8747 125.309 36.528C125.832 37.1813 126.616 37.508 127.661 37.508C128.352 37.508 128.968 37.34 129.509 37.004C130.05 36.668 130.47 36.192 130.769 35.576C131.086 34.9413 131.245 34.176 131.245 33.28V26.112H134.605V40H131.637L131.385 37.676H131.357C130.928 38.4787 130.302 39.1227 129.481 39.608C128.678 40.0933 127.726 40.336 126.625 40.336ZM143.141 40C142.208 40 141.386 39.8507 140.677 39.552C139.968 39.2533 139.417 38.7587 139.025 38.068C138.652 37.3773 138.465 36.444 138.465 35.268V28.884H136.085V26.112H138.465L138.857 22.472H141.825V26.112H145.633V28.884H141.825V35.268C141.825 35.996 141.974 36.5 142.273 36.78C142.572 37.0413 143.094 37.172 143.841 37.172H145.521V40H143.141ZM153.745 40.336C152.345 40.336 151.104 40.0373 150.021 39.44C148.957 38.824 148.117 37.984 147.501 36.92C146.904 35.8373 146.605 34.5773 146.605 33.14C146.605 31.684 146.904 30.4053 147.501 29.304C148.099 28.2027 148.929 27.344 149.993 26.728C151.076 26.0933 152.327 25.776 153.745 25.776C155.127 25.776 156.331 26.084 157.357 26.7C158.384 27.2973 159.187 28.1 159.765 29.108C160.344 30.116 160.633 31.2547 160.633 32.524C160.633 32.7107 160.624 32.916 160.605 33.14C160.605 33.364 160.596 33.6067 160.577 33.868H149.013V31.712H157.245C157.189 30.7227 156.835 29.9387 156.181 29.36C155.528 28.7813 154.716 28.492 153.745 28.492C153.055 28.492 152.411 28.6507 151.813 28.968C151.235 29.2667 150.768 29.724 150.413 30.34C150.077 30.956 149.909 31.7307 149.909 32.664V33.476C149.909 34.3347 150.077 35.072 150.413 35.688C150.749 36.304 151.207 36.7707 151.785 37.088C152.364 37.4053 153.008 37.564 153.717 37.564C154.483 37.564 155.127 37.396 155.649 37.06C156.172 36.7053 156.564 36.2387 156.825 35.66H160.213C159.971 36.556 159.541 37.3587 158.925 38.068C158.328 38.7587 157.591 39.3093 156.713 39.72C155.836 40.1307 154.847 40.336 153.745 40.336Z" fill="#0C0A09"/>
</svg>
