<svg width="220" height="56" viewBox="0 0 220 56" fill="none" xmlns="http://www.w3.org/2000/svg">
<path d="M13.764 40V20.4H20.792C22.36 20.4 23.648 20.6707 24.656 21.212C25.664 21.7347 26.4107 22.444 26.896 23.34C27.4 24.2173 27.652 25.216 27.652 26.336C27.652 27.3813 27.4093 28.352 26.924 29.248C26.4387 30.144 25.6827 30.8627 24.656 31.404C23.648 31.9453 22.3413 32.216 20.736 32.216H17.124V40H13.764ZM23.984 40L19.868 31.348H23.536L27.848 40H23.984ZM17.124 29.724H20.596C21.828 29.724 22.7333 29.4253 23.312 28.828C23.9093 28.212 24.208 27.4093 24.208 26.42C24.208 25.4493 23.9187 24.6747 23.34 24.096C22.78 23.4987 21.856 23.2 20.568 23.2H17.124V29.724ZM35.6915 40.336C34.2915 40.336 33.0502 40.0373 31.9675 39.44C30.9035 38.824 30.0635 37.984 29.4475 36.92C28.8502 35.8373 28.5515 34.5773 28.5515 33.14C28.5515 31.684 28.8502 30.4053 29.4475 29.304C30.0448 28.2027 30.8755 27.344 31.9395 26.728C33.0222 26.0933 34.2728 25.776 35.6915 25.776C37.0728 25.776 38.2768 26.084 39.3035 26.7C40.3302 27.2973 41.1328 28.1 41.7115 29.108C42.2902 30.116 42.5795 31.2547 42.5795 32.524C42.5795 32.7107 42.5702 32.916 42.5515 33.14C42.5515 33.364 42.5422 33.6067 42.5235 33.868H30.9595V31.712H39.1915C39.1355 30.7227 38.7808 29.9387 38.1275 29.36C37.4742 28.7813 36.6622 28.492 35.6915 28.492C35.0008 28.492 34.3568 28.6507 33.7595 28.968C33.1808 29.2667 32.7142 29.724 32.3595 30.34C32.0235 30.956 31.8555 31.7307 31.8555 32.664V33.476C31.8555 34.3347 32.0235 35.072 32.3595 35.688C32.6955 36.304 33.1528 36.7707 33.7315 37.088C34.3102 37.4053 34.9542 37.564 35.6635 37.564C36.4288 37.564 37.0728 37.396 37.5955 37.06C38.1182 36.7053 38.5102 36.2387 38.7715 35.66H42.1595C41.9168 36.556 41.4875 37.3587 40.8715 38.068C40.2742 38.7587 39.5368 39.3093 38.6595 39.72C37.7822 40.1307 36.7928 40.336 35.6915 40.336ZM47.7442 40L42.7322 26.112H46.2602L49.8722 37.032H49.9002L53.5122 26.112H57.0122L52.0002 40H47.7442ZM58.2459 40V26.112H61.2139L61.5219 28.856H61.5499C61.9046 28.1467 62.3246 27.568 62.8099 27.12C63.2953 26.672 63.8553 26.336 64.4899 26.112C65.1433 25.888 65.8619 25.776 66.6459 25.776V29.304H65.7499C65.1339 29.304 64.5646 29.3787 64.0419 29.528C63.5379 29.6773 63.0993 29.9107 62.7259 30.228C62.3713 30.5453 62.0913 30.9747 61.8859 31.516C61.6993 32.0573 61.6059 32.72 61.6059 33.504V40H58.2459ZM74.2945 40.336C72.9692 40.336 71.7745 40.028 70.7105 39.412C69.6465 38.796 68.7972 37.9467 68.1625 36.864C67.5465 35.7627 67.2385 34.4933 67.2385 33.056C67.2385 31.6187 67.5465 30.3493 68.1625 29.248C68.7972 28.1467 69.6465 27.2973 70.7105 26.7C71.7932 26.084 72.9972 25.776 74.3225 25.776C75.6665 25.776 76.8705 26.084 77.9345 26.7C78.9985 27.2973 79.8385 28.1467 80.4545 29.248C81.0892 30.3307 81.4065 31.6 81.4065 33.056C81.4065 34.4933 81.0892 35.7627 80.4545 36.864C79.8385 37.9467 78.9892 38.796 77.9065 39.412C76.8425 40.028 75.6385 40.336 74.2945 40.336ZM74.2945 37.48C74.9665 37.48 75.5732 37.312 76.1145 36.976C76.6745 36.64 77.1225 36.1453 77.4585 35.492C77.7945 34.8387 77.9625 34.0267 77.9625 33.056C77.9625 32.0667 77.7945 31.2453 77.4585 30.592C77.1225 29.9387 76.6745 29.4533 76.1145 29.136C75.5732 28.8 74.9759 28.632 74.3225 28.632C73.6879 28.632 73.0905 28.8 72.5305 29.136C71.9705 29.4533 71.5132 29.9387 71.1585 30.592C70.8225 31.2453 70.6545 32.0667 70.6545 33.056C70.6545 34.0267 70.8225 34.8387 71.1585 35.492C71.5132 36.1453 71.9612 36.64 72.5025 36.976C73.0625 37.312 73.6599 37.48 74.2945 37.48ZM88.6248 40.336C87.4862 40.336 86.5155 40.1027 85.7128 39.636C84.9102 39.1507 84.2942 38.4413 83.8648 37.508C83.4355 36.556 83.2208 35.3893 83.2208 34.008V26.112H86.5528V33.672C86.5528 34.9227 86.8048 35.8747 87.3088 36.528C87.8315 37.1813 88.6155 37.508 89.6608 37.508C90.3515 37.508 90.9675 37.34 91.5088 37.004C92.0502 36.668 92.4702 36.192 92.7688 35.576C93.0862 34.9413 93.2448 34.176 93.2448 33.28V26.112H96.6048V40H93.6368L93.3848 37.676H93.3568C92.9275 38.4787 92.3022 39.1227 91.4808 39.608C90.6782 40.0933 89.7262 40.336 88.6248 40.336ZM105.141 40C104.208 40 103.386 39.8507 102.677 39.552C101.968 39.2533 101.417 38.7587 101.025 38.068C100.652 37.3773 100.465 36.444 100.465 35.268V28.884H98.0851V26.112H100.465L100.857 22.472H103.825V26.112H107.633V28.884H103.825V35.268C103.825 35.996 103.974 36.5 104.273 36.78C104.572 37.0413 105.094 37.172 105.841 37.172H107.521V40H105.141ZM115.745 40.336C114.345 40.336 113.104 40.0373 112.021 39.44C110.957 38.824 110.117 37.984 109.501 36.92C108.904 35.8373 108.605 34.5773 108.605 33.14C108.605 31.684 108.904 30.4053 109.501 29.304C110.099 28.2027 110.929 27.344 111.993 26.728C113.076 26.0933 114.327 25.776 115.745 25.776C117.127 25.776 118.331 26.084 119.357 26.7C120.384 27.2973 121.187 28.1 121.765 29.108C122.344 30.116 122.633 31.2547 122.633 32.524C122.633 32.7107 122.624 32.916 122.605 33.14C122.605 33.364 122.596 33.6067 122.577 33.868H111.013V31.712H119.245C119.189 30.7227 118.835 29.9387 118.181 29.36C117.528 28.7813 116.716 28.492 115.745 28.492C115.055 28.492 114.411 28.6507 113.813 28.968C113.235 29.2667 112.768 29.724 112.413 30.34C112.077 30.956 111.909 31.7307 111.909 32.664V33.476C111.909 34.3347 112.077 35.072 112.413 35.688C112.749 36.304 113.207 36.7707 113.785 37.088C114.364 37.4053 115.008 37.564 115.717 37.564C116.483 37.564 117.127 37.396 117.649 37.06C118.172 36.7053 118.564 36.2387 118.825 35.66H122.213C121.971 36.556 121.541 37.3587 120.925 38.068C120.328 38.7587 119.591 39.3093 118.713 39.72C117.836 40.1307 116.847 40.336 115.745 40.336Z" fill="white"/>
</svg>
