<svg width="24" height="24" viewBox="0 0 24 24" fill="none" xmlns="http://www.w3.org/2000/svg">
<path d="M4.474 20V4.6H10.238C11.47 4.6 12.4893 4.81267 13.296 5.238C14.1173 5.66333 14.726 6.23533 15.122 6.954C15.518 7.658 15.716 8.44267 15.716 9.308C15.716 10.1293 15.518 10.8993 15.122 11.618C14.7407 12.322 14.1467 12.894 13.34 13.334C12.5333 13.7593 11.4847 13.972 10.194 13.972H7.444V20H4.474ZM12.46 20L9.292 13.224H12.504L15.848 20H12.46ZM7.444 11.816H10.062C10.9567 11.816 11.6167 11.596 12.042 11.156C12.4673 10.716 12.68 10.1367 12.68 9.418C12.68 8.69933 12.4673 8.13467 12.042 7.724C11.6313 7.29867 10.964 7.086 10.04 7.086H7.444V11.816Z" fill="#0C0A09"/>
</svg>
